<svg viewBox="0 0 1024 1024" xmlns="http://www.w3.org/2000/svg">
  <path d="M277.418667 618.752V401.493333c63.317333 36.010667 123.306667 70.101333 189.098666 107.605334-64.512 37.376-124.885333 72.362667-189.098666 109.653333zM509.269333 0.341333c64.426667 37.12 124.16 71.68 188.842667 109.098667l-188.842667 108.501333v-217.6z m189.312 643.2c-65.578667 37.461333-125.568 71.893333-188.757333 108.032V535.04l188.757333 108.544zM277.546667 885.333333V668.586667c62.848 35.882667 122.965333 70.314667 188.416 107.818666-64.085333 37.034667-124.416 72.064-188.416 108.970667z m232.405333-83.2c63.146667 36.266667 122.922667 70.698667 188.074667 107.946667a199452.16 199452.16 0 0 1-188.074667 108.672v-216.576z m-218.752-158.72c64.426667-37.034667 123.946667-71.466667 187.050667-107.733333v215.04c-62.506667-35.968-122.026667-70.058667-187.050667-107.306667z m419.2 26.112v215.04l-186.453333-108.202666c63.573333-36.48 122.922667-70.442667 186.453333-106.837334z m-187.178667-160.085333c64.213333-36.693333 123.648-70.826667 186.282667-106.709333v213.76c-61.952-35.584-121.6-69.802667-186.282667-107.093334zM477.44 1017.258667L291.754667 910.506667l185.685333-107.264v214.058666zM478.464 1.706667v214.869333c-63.146667-36.266667-122.965333-70.4-186.922667-107.136L478.464 1.706667z" fill="#00435E"/>
  <path d="M290.133333 378.538667c64.256-36.693333 123.690667-70.826667 186.282667-106.709334v213.76c-61.952-35.584-121.6-69.802667-186.24-107.093333zM59.306667 513.706667c64.213333-36.693333 123.648-70.826667 186.24-106.666667v213.717333c-61.909333-35.669333-121.6-69.888-186.24-107.050666z m636.714666-135.253334c-64.213333-36.693333-123.648-70.784-186.282666-106.666666v213.76c61.952-35.584 121.6-69.802667 186.282666-107.093334z m231.338667 129.578667c-64.213333-36.693333-123.648-70.826667-186.24-106.709333v213.76l186.24-107.093334zM229.162667 642.944c-64.213333-36.693333-123.648-70.784-186.282667-106.666667v213.76c61.952-35.626667 121.6-69.802667 186.282667-107.093333z m0-264.533333c-64.213333-36.693333-123.648-70.826667-186.282667-106.666667v213.717333l186.282667-107.050666z m16.213333-31.829334c-0.213333-73.984-0.341333-142.506667-0.426667-214.613333-62.293333 35.84-121.813333 70.058667-185.216 106.666667 61.696 35.925333 121.130667 70.442667 185.642667 107.946666z m28.16 0c0.256-73.984 0.384-142.506667 0.512-214.613333 62.293333 35.84 121.813333 70.058667 185.173333 106.666667-61.653333 35.925333-121.088 70.442667-185.642666 107.946666z m439.125333 5.546667c-0.213333-73.941333-0.341333-142.506667-0.426666-214.613333-62.293333 35.882667-121.856 70.101333-185.258667 106.666666 61.696 35.925333 121.173333 70.485333 185.685333 107.946667z m28.16 0c0.256-73.941333 0.384-142.506667 0.469334-214.613333l185.258666 106.666666-185.685333 107.946667zM59.306667 776.874667c64.213333-36.693333 123.648-70.826667 186.24-106.709334v213.76l-186.24-107.093333z m867.84-0.810667c-64.213333-36.693333-123.648-70.826667-186.24-106.666667v213.717334c61.909333-35.584 121.6-69.76 186.24-107.050667z m16.810666-26.368c-0.213333-73.984-0.341333-142.506667-0.426666-214.613333-62.293333 35.84-121.856 70.058667-185.258667 106.666666 61.610667 35.925333 121.173333 70.442667 185.685333 107.946667z m0-264.533333c-0.213333-73.984-0.341333-142.506667-0.426666-214.656-62.293333 35.882667-121.856 70.101333-185.258667 106.666666l185.685333 107.946667z" fill="#3A9FCA"/>
</svg>
